<?xml version="1.0" encoding="iso-8859-1"?>
<!-- Generator: Adobe Illustrator 19.0.0, SVG Export Plug-In . SVG Version: 6.00 Build 0)  -->
<svg xmlns="http://www.w3.org/2000/svg" xmlns:xlink="http://www.w3.org/1999/xlink" version="1.1" id="Layer_1" x="0px" y="0px" viewBox="0 0 512 512" style="enable-background:new 0 0 512 512;" xml:space="preserve" width="512" height="512">
<g>
	<path d="M256,0C198.264,0,143.762,18.765,98.386,54.267c-3.262,2.552-3.838,7.266-1.285,10.528   c2.552,3.263,7.267,3.837,10.528,1.286C150.341,32.664,201.647,15,256,15c64.374,0,124.894,25.068,170.413,70.587   C471.932,131.106,497,191.626,497,256s-25.068,124.894-70.587,170.413S320.374,497,256,497s-124.894-25.068-170.413-70.587   S15,320.374,15,256c0-64.475,25.14-125.065,70.788-170.608c2.932-2.926,2.938-7.674,0.012-10.607   c-2.926-2.932-7.675-2.938-10.607-0.012C26.704,123.151,0,187.512,0,256c0,68.38,26.629,132.667,74.98,181.02   C123.333,485.371,187.62,512,256,512s132.667-26.629,181.02-74.98C485.371,388.667,512,324.38,512,256   c0-68.38-26.629-132.667-74.98-181.02C388.667,26.628,324.38,0,256,0z"/>
	<path d="M418.483,377.083c3.409,2.354,8.08,1.498,10.433-1.911C453.177,340.035,466,298.826,466,256c0-115.794-94.206-210-210-210   S46,140.206,46,256s94.206,210,210,210c29.557,0,58.139-6.023,84.952-17.901c25.894-11.471,48.882-27.813,68.328-48.572   c2.832-3.023,2.677-7.77-0.346-10.601c-3.024-2.832-7.77-2.677-10.601,0.346c-18.063,19.283-39.413,34.461-63.457,45.112   C309.989,445.41,283.451,451,256,451c-107.523,0-195-87.477-195-195S148.477,61,256,61s195,87.477,195,195   c0,39.767-11.905,78.029-34.428,110.649C414.219,370.058,415.074,374.729,418.483,377.083z"/>
	<path d="M171.472,163.987c-4.142,0-7.5,3.358-7.5,7.5v15.298c0,4.142,3.358,7.5,7.5,7.5s7.5-3.358,7.5-7.5v-15.298   C178.972,167.346,175.614,163.987,171.472,163.987z"/>
	<path d="M340.528,194.286c4.142,0,7.5-3.358,7.5-7.5v-15.298c0-4.142-3.358-7.5-7.5-7.5s-7.5,3.358-7.5,7.5v15.298   C333.028,190.928,336.386,194.286,340.528,194.286z"/>
	<path d="M233.471,191.538c5.574,6.376,13.785,10.033,22.529,10.033c8.744,0,16.956-3.657,22.529-10.033   c2.726-3.119,2.408-7.857-0.711-10.583c-3.118-2.726-7.856-2.408-10.583,0.711c-2.725,3.117-6.82,4.905-11.235,4.905   c-4.415,0-8.51-1.788-11.236-4.905c-2.726-3.119-7.464-3.437-10.583-0.71C231.063,183.681,230.745,188.419,233.471,191.538z"/>
	<path d="M91.711,220.069c0.096,1.488,0.644,2.992,1.565,4.172c0,0,133.018,168.974,133.127,169.113   c14.864,18.882,44.351,18.857,59.196,0l133.127-169.113c1.873-2.398,2.094-5.871,0.546-8.485l-32.267-54.022   c-10.854-18.17-30.748-29.457-51.92-29.457H176.917c-21.172,0-41.066,11.287-51.92,29.457l-32.267,54.022   C91.95,217.056,91.615,218.576,91.711,220.069z M238.188,384.076L114.618,227.102h76.095l53.885,162.561   C242.167,388.246,239.99,386.364,238.188,384.076z M231.262,147.276h49.477l15.411,41.094l8.899,23.731h-98.098l5.973-15.927   L231.262,147.276z M206.516,227.102h98.968L256,376.386L206.516,227.102z M273.812,384.076c-1.801,2.288-3.978,4.17-6.41,5.587   l53.885-162.562h76.096L273.812,384.076z M335.083,147.276c15.921,0,30.882,8.487,39.042,22.149l25.49,42.676h-78.547   l-12.811-34.161l-11.5-30.665H335.083z M137.875,169.426c8.161-13.662,23.121-22.149,39.042-22.149h38.325l-2.859,7.623   l-21.452,57.202h-78.547L137.875,169.426z"/>
</g>















</svg>
